<svg version="1.1" xmlns="http://www.w3.org/2000/svg" style="display: block;" viewBox="33 259 1127 1127" width="1000" height="1000">
<defs>
	<linearGradient id="Gradient1" gradientUnits="userSpaceOnUse" x1="207.057" y1="1118.39" x2="484.244" y2="866.853">
		<stop class="stop0" offset="0" stop-opacity="1" stop-color="rgb(13,11,45)"/>
		<stop class="stop1" offset="1" stop-opacity="1" stop-color="rgb(59,40,114)"/>
	</linearGradient>
	<linearGradient id="Gradient2" gradientUnits="userSpaceOnUse" x1="718.222" y1="727.519" x2="395.494" y2="632.325">
		<stop class="stop0" offset="0" stop-opacity="1" stop-color="rgb(181,100,118)"/>
		<stop class="stop1" offset="1" stop-opacity="1" stop-color="rgb(88,64,155)"/>
	</linearGradient>
	<mask id="cutout-mask">
		<rect x="0" y="0" width="2000" height="2000" fill="white"/>
		<path fill="black" d="M 497.76 710.288 C 496.767 696.596 497.272 679.39 497.299 665.326 C 497.337 645.253 496.702 624.265 497.214 604.294 C 562.561 716.058 628.878 827.254 696.155 937.867 C 695.809 972.241 695.978 1006.62 696.662 1040.99 L 695.414 1041.82 C 689.913 1031.7 683.515 1021.05 677.538 1011.18 C 617.061 911.285 558.728 809.864 497.76 710.288 z"/>
	</mask>
</defs>

<path transform="translate(0,0)" fill="rgb(89,55,126)" mask="url(#cutout-mask)" d="M 241.826 492.027 C 283.219 492.152 324.612 492.065 366.003 491.766 C 369.364 496.805 370.989 499.422 373.652 504.833 C 377.245 509.125 386.155 525.856 389.97 531.906 C 404.745 555.339 418.902 581.815 434.16 604.779 L 434.146 492.303 L 530.819 492.059 L 689.501 754.792 L 729.779 821.866 C 736.614 833.141 746.135 847.447 751.653 859.005 C 742.314 853.664 707.289 780.665 695.219 770.174 C 692.591 769.043 685.704 769.248 683.447 770.007 C 673.497 773.353 674.581 793.351 675.997 801.963 C 679.485 823.169 662.523 874.544 671.618 891.809 C 693.677 933.679 722.754 973.664 744.334 1016.01 C 747.256 1021.76 750.566 1027.14 752.752 1032.69 C 759.951 1043.4 763.76 1051.04 769.707 1062.14 C 770.475 1094.27 770.259 1128.81 770.013 1161.03 C 736.156 1161.4 702.215 1160.75 668.452 1161.56 L 447.502 798.214 L 360.162 653.264 C 350.32 637.093 340.405 619.107 330.283 603.338 L 330.899 940.121 L 330.995 1036.68 C 331.003 1045.57 331.559 1076.05 330.401 1083.79 C 349.401 1083.43 368.406 1083.37 387.408 1083.59 C 388.277 1007.79 386.97 931.658 387.439 855.825 C 387.508 844.649 387.05 833.381 387.825 822.233 C 387.024 806.999 387.482 786.167 387.336 770.393 L 387.319 756.324 C 405.386 786.411 423.631 816.389 442.056 846.257 C 449.846 858.915 460.64 872.502 466.139 886.208 C 470.098 896.074 467.939 1127.97 467.967 1161.13 C 393.512 1162.13 316.427 1161.21 241.797 1161.03 L 241.991 599.902 C 241.276 589.86 241.783 573.659 241.784 563.241 L 241.826 492.027 z"/>
<path transform="translate(0,0)" fill="url(#Gradient2)" mask="url(#cutout-mask)" d="M 434.146 492.303 L 530.819 492.059 L 689.501 754.792 L 729.779 821.866 C 736.614 833.141 746.135 847.447 751.653 859.005 C 742.314 853.664 707.289 780.665 695.219 770.174 C 692.591 769.043 685.704 769.248 683.447 770.007 C 673.497 773.353 674.581 793.351 675.997 801.963 C 679.485 823.169 662.523 874.544 671.618 891.809 C 693.677 933.679 722.754 973.664 744.334 1016.01 C 747.256 1021.76 750.566 1027.14 752.752 1032.69 C 741.766 1025.54 714.979 963.822 702.374 952.323 C 701.446 951.476 699.503 946.068 699.276 944.627 C 694.502 952.921 700.235 1039.01 696.872 1043.96 C 695.387 1042.66 695.79 1043.43 695.414 1041.82 C 689.913 1031.7 683.515 1021.05 677.538 1011.18 C 617.061 911.285 558.728 809.864 497.76 710.288 C 495.683 708.511 457.945 647.741 453.086 639.939 C 425.794 595.696 399.024 551.133 372.78 506.259 L 373.652 504.833 C 377.245 509.125 386.155 525.856 389.97 531.906 C 404.745 555.339 418.902 581.815 434.16 604.779 L 434.146 492.303 z"/>
<path transform="translate(0,0)" fill="url(#Gradient1)" mask="url(#cutout-mask)" d="M 241.991 599.902 C 244.383 609.52 243.576 638.226 243.566 649.526 L 243.445 754.513 C 243.422 771.361 243.238 789.933 243.654 806.676 C 244.158 826.971 273.631 835.646 286.394 848.975 C 293.898 856.812 315.775 885.034 324.91 887.582 C 325.746 889.388 326.578 891.092 327.253 892.968 L 329.092 894.231 C 329.722 885.129 328.805 875.023 328.992 865.758 C 330.197 806.207 327.291 745.391 329.273 685.964 C 330.062 721.475 329.583 758.2 329.638 793.809 L 329.952 982.872 L 329.89 1052.52 C 329.882 1058.17 329.555 1079.69 330.401 1083.79 C 349.401 1083.43 368.406 1083.37 387.408 1083.59 C 388.277 1007.79 386.97 931.658 387.439 855.825 C 387.508 844.649 387.05 833.381 387.825 822.233 C 387.024 806.999 387.482 786.167 387.336 770.393 L 387.319 756.324 C 405.386 786.411 423.631 816.389 442.056 846.257 C 449.846 858.915 460.64 872.502 466.139 886.208 C 470.098 896.074 467.939 1127.97 467.967 1161.13 C 393.512 1162.13 316.427 1161.21 241.797 1161.03 L 241.991 599.902 z"/>
<path transform="translate(0,0)" fill="rgb(89,55,126)" mask="url(#cutout-mask)" d="M 387.336 770.393 C 387.998 773.732 388.109 776.802 390.555 779.017 C 401.489 781.712 397.663 785.113 400.589 793.517 C 401.583 796.372 406.344 797.172 406.212 802.575 C 399.777 806.116 390.614 807.217 389.432 813.88 C 388.798 817.456 389.382 818.594 387.825 822.233 C 387.024 806.999 387.482 786.167 387.336 770.393 z"/>
<path transform="translate(0,0)" fill="rgb(240,122,101)" mask="url(#cutout-mask)" d="M 727.82 492.116 C 802.126 492.018 877.678 492.574 951.905 491.657 L 952.164 1161.14 C 912.273 1161.15 871.075 1160.75 831.262 1161.51 C 823.682 1149.11 772.92 1063.85 769.707 1062.14 C 763.76 1051.04 759.951 1043.4 752.752 1032.69 C 750.566 1027.14 747.256 1021.76 744.334 1016.01 C 722.754 973.664 693.677 933.679 671.618 891.809 C 662.523 874.544 679.485 823.169 675.997 801.963 C 674.581 793.351 673.497 773.353 683.447 770.007 C 685.704 769.248 692.591 769.043 695.219 770.174 C 707.289 780.665 742.314 853.664 751.653 859.005 C 762.009 874.685 772.971 894.108 782.632 910.309 L 831.532 992.182 C 840.59 1007.46 853.488 1030.87 863.322 1044.68 C 864.262 1022.71 863.766 999.741 863.735 977.645 L 863.732 872.301 L 863.775 569.063 L 806.398 568.922 C 806.773 676.115 805.108 785.354 806.419 892.235 C 780.454 849.123 754.233 806.166 727.759 763.365 L 727.82 492.116 z"/>














<path transform="translate(0,0)" fill="rgb(16,10,50)" d="M 160.48 1065.9 C 166.412 1069.64 195.257 1086.95 198.415 1090.51 C 202.594 1092.66 203.062 1092.12 205.503 1095.78 C 207.119 1108.32 205.077 1132.42 205.998 1147.99 C 200.759 1150.91 160.035 1174.26 157.815 1174.07 L 157.307 1173.74 C 142.566 1164.48 127.76 1155.32 112.891 1146.26 C 112.618 1129.42 112.705 1108.95 113.375 1092.2 L 121.417 1087.53 C 133.992 1080.72 148.364 1073.25 160.48 1065.9 z"/>
<path transform="translate(0,0)" fill="rgb(89,55,126)" d="M 159.511 1120.63 C 173.938 1110.5 187.013 1107.83 200.655 1093.72 L 198.159 1091.84 L 198.415 1090.51 C 202.594 1092.66 203.062 1092.12 205.503 1095.78 C 207.119 1108.32 205.077 1132.42 205.998 1147.99 C 200.759 1150.91 160.035 1174.26 157.815 1174.07 L 157.307 1173.74 C 159.699 1170.79 158.446 1161.09 158.321 1156.73 C 157.969 1144.44 158.357 1132.88 159.511 1120.63 z"/>
<path transform="translate(0,0)" fill="rgb(87,64,155)" d="M 160.48 1065.9 C 166.412 1069.64 195.257 1086.95 198.415 1090.51 L 198.159 1091.84 L 200.655 1093.72 C 187.013 1107.83 173.938 1110.5 159.511 1120.63 C 149.244 1113.58 138.491 1107.27 127.756 1099.79 C 123.122 1097.08 118.163 1094.65 113.375 1092.2 L 121.417 1087.53 C 133.992 1080.72 148.364 1073.25 160.48 1065.9 z"/>
<path transform="translate(0,0)" fill="rgb(89,55,126)" d="M 121.417 1087.53 C 125.827 1089.65 128.797 1089.92 130.77 1093.31 C 130.301 1096.78 130.002 1096.93 127.756 1099.79 C 123.122 1097.08 118.163 1094.65 113.375 1092.2 L 121.417 1087.53 z"/>
<path transform="translate(0,0)" fill="rgb(240,122,101)" d="M 1033.28 471.839 C 1039.63 475.403 1073.79 495.588 1077.9 496.936 C 1079.8 503.607 1078.74 541.233 1078.6 550.849 C 1065.89 557.688 1053.36 564.839 1041.01 572.295 C 1032.64 576.815 1032.2 576.374 1023.79 571.41 C 1011.9 564.387 999.98 557.317 988.082 550.308 C 988.367 536.654 987.672 509.994 989.135 497.856 C 1002.6 490.159 1020.3 480.238 1033.28 471.839 z"/>
<path transform="translate(0,0)" fill="rgb(190,92,76)" d="M 989.135 497.856 C 1003.83 506.827 1018.77 515.379 1033.95 523.501 C 1032.98 533.083 1032.11 562.892 1034.69 571.561 C 1036.8 571.795 1038.9 572.039 1041.01 572.295 C 1032.64 576.815 1032.2 576.374 1023.79 571.41 C 1011.9 564.387 999.98 557.317 988.082 550.308 C 988.367 536.654 987.672 509.994 989.135 497.856 z"/>
<path transform="translate(0,0)" fill="rgb(241,149,100)" d="M 1033.28 471.839 C 1039.63 475.403 1073.79 495.588 1077.9 496.936 C 1069.72 502.05 1042.16 520.716 1033.95 523.501 C 1018.77 515.379 1003.83 506.827 989.135 497.856 C 1002.6 490.159 1020.3 480.238 1033.28 471.839 z"/>























</svg>