<svg version="1.1" xmlns="http://www.w3.org/2000/svg" viewBox="720 676 1255 289" width="1255" height="289">
<defs>
	<linearGradient id="Gradient1" gradientUnits="userSpaceOnUse" x1="207.057" y1="1118.39" x2="484.244" y2="866.853">
		<stop class="stop0" offset="0" stop-opacity="1" stop-color="rgb(13,11,45)"/>
		<stop class="stop1" offset="1" stop-opacity="1" stop-color="rgb(59,40,114)"/>
	</linearGradient>
	<linearGradient id="Gradient2" gradientUnits="userSpaceOnUse" x1="718.222" y1="727.519" x2="395.494" y2="632.325">
		<stop class="stop0" offset="0" stop-opacity="1" stop-color="rgb(181,100,118)"/>
		<stop class="stop1" offset="1" stop-opacity="1" stop-color="rgb(88,64,155)"/>
	</linearGradient>
	<mask id="NMask">
		<rect x="0" y="0" width="2000" height="2000" fill="white"/>
		<path fill="black" d="M 497.76 710.288 C 496.767 696.596 497.272 679.39 497.299 665.326 C 497.337 645.253 496.702 624.265 497.214 604.294 C 562.561 716.058 628.878 827.254 696.155 937.867 C 695.809 972.241 695.978 1006.62 696.662 1040.99 L 695.414 1041.82 C 689.913 1031.7 683.515 1021.05 677.538 1011.18 C 617.061 911.285 558.728 809.864 497.76 710.288 z"/>
	</mask>
</defs>
<g transform="translate(708, 564) scale(0.28)" mask="url(#NMask)">
<path transform="translate(0,0)" fill="rgb(89,55,126)" d="M 241.826 492.027 C 283.219 492.152 324.612 492.065 366.003 491.766 C 369.364 496.805 370.989 499.422 373.652 504.833 C 377.245 509.125 386.155 525.856 389.97 531.906 C 404.745 555.339 418.902 581.815 434.16 604.779 L 434.146 492.303 L 530.819 492.059 L 689.501 754.792 L 729.779 821.866 C 736.614 833.141 746.135 847.447 751.653 859.005 C 742.314 853.664 707.289 780.665 695.219 770.174 C 692.591 769.043 685.704 769.248 683.447 770.007 C 673.497 773.353 674.581 793.351 675.997 801.963 C 679.485 823.169 662.523 874.544 671.618 891.809 C 693.677 933.679 722.754 973.664 744.334 1016.01 C 747.256 1021.76 750.566 1027.14 752.752 1032.69 C 759.951 1043.4 763.76 1051.04 769.707 1062.14 C 770.475 1094.27 770.259 1128.81 770.013 1161.03 C 736.156 1161.4 702.215 1160.75 668.452 1161.56 L 447.502 798.214 L 360.162 653.264 C 350.32 637.093 340.405 619.107 330.283 603.338 L 330.899 940.121 L 330.995 1036.68 C 331.003 1045.57 331.559 1076.05 330.401 1083.79 C 349.401 1083.43 368.406 1083.37 387.408 1083.59 C 388.277 1007.79 386.97 931.658 387.439 855.825 C 387.508 844.649 387.05 833.381 387.825 822.233 C 387.024 806.999 387.482 786.167 387.336 770.393 L 387.319 756.324 C 405.386 786.411 423.631 816.389 442.056 846.257 C 449.846 858.915 460.64 872.502 466.139 886.208 C 470.098 896.074 467.939 1127.97 467.967 1161.13 C 393.512 1162.13 316.427 1161.21 241.797 1161.03 L 241.991 599.902 C 241.276 589.86 241.783 573.659 241.784 563.241 L 241.826 492.027 z"/>
<path transform="translate(0,0)" fill="url(#Gradient2)" d="M 434.146 492.303 L 530.819 492.059 L 689.501 754.792 L 729.779 821.866 C 736.614 833.141 746.135 847.447 751.653 859.005 C 742.314 853.664 707.289 780.665 695.219 770.174 C 692.591 769.043 685.704 769.248 683.447 770.007 C 673.497 773.353 674.581 793.351 675.997 801.963 C 679.485 823.169 662.523 874.544 671.618 891.809 C 693.677 933.679 722.754 973.664 744.334 1016.01 C 747.256 1021.76 750.566 1027.14 752.752 1032.69 C 741.766 1025.54 714.979 963.822 702.374 952.323 C 701.446 951.476 699.503 946.068 699.276 944.627 C 694.502 952.921 700.235 1039.01 696.872 1043.96 C 695.387 1042.66 695.79 1043.43 695.414 1041.82 C 689.913 1031.7 683.515 1021.05 677.538 1011.18 C 617.061 911.285 558.728 809.864 497.76 710.288 C 495.683 708.511 457.945 647.741 453.086 639.939 C 425.794 595.696 399.024 551.133 372.78 506.259 L 373.652 504.833 C 377.245 509.125 386.155 525.856 389.97 531.906 C 404.745 555.339 418.902 581.815 434.16 604.779 L 434.146 492.303 z"/>
<path transform="translate(0,0)" fill="url(#Gradient1)" d="M 241.991 599.902 C 244.383 609.52 243.576 638.226 243.566 649.526 L 243.445 754.513 C 243.422 771.361 243.238 789.933 243.654 806.676 C 244.158 826.971 273.631 835.646 286.394 848.975 C 293.898 856.812 315.775 885.034 324.91 887.582 C 325.746 889.388 326.578 891.092 327.253 892.968 L 329.092 894.231 C 329.722 885.129 328.805 875.023 328.992 865.758 C 330.197 806.207 327.291 745.391 329.273 685.964 C 330.062 721.475 329.583 758.2 329.638 793.809 L 329.952 982.872 L 329.89 1052.52 C 329.882 1058.17 329.555 1079.69 330.401 1083.79 C 349.401 1083.43 368.406 1083.37 387.408 1083.59 C 388.277 1007.79 386.97 931.658 387.439 855.825 C 387.508 844.649 387.05 833.381 387.825 822.233 C 387.024 806.999 387.482 786.167 387.336 770.393 L 387.319 756.324 C 405.386 786.411 423.631 816.389 442.056 846.257 C 449.846 858.915 460.64 872.502 466.139 886.208 C 470.098 896.074 467.939 1127.97 467.967 1161.13 C 393.512 1162.13 316.427 1161.21 241.797 1161.03 L 241.991 599.902 z"/>
<path transform="translate(0,0)" fill="rgb(89,55,126)" d="M 387.336 770.393 C 387.998 773.732 388.109 776.802 390.555 779.017 C 401.489 781.712 397.663 785.113 400.589 793.517 C 401.583 796.372 406.344 797.172 406.212 802.575 C 399.777 806.116 390.614 807.217 389.432 813.88 C 388.798 817.456 389.382 818.594 387.825 822.233 C 387.024 806.999 387.482 786.167 387.336 770.393 z"/>
<path transform="translate(0,0)" fill="rgb(240,122,101)" d="M 727.82 492.116 C 802.126 492.018 877.678 492.574 951.905 491.657 L 952.164 1161.14 C 912.273 1161.15 871.075 1160.75 831.262 1161.51 C 823.682 1149.11 772.92 1063.85 769.707 1062.14 C 763.76 1051.04 759.951 1043.4 752.752 1032.69 C 750.566 1027.14 747.256 1021.76 744.334 1016.01 C 722.754 973.664 693.677 933.679 671.618 891.809 C 662.523 874.544 679.485 823.169 675.997 801.963 C 674.581 793.351 673.497 773.353 683.447 770.007 C 685.704 769.248 692.591 769.043 695.219 770.174 C 707.289 780.665 742.314 853.664 751.653 859.005 C 762.009 874.685 772.971 894.108 782.632 910.309 L 831.532 992.182 C 840.59 1007.46 853.488 1030.87 863.322 1044.68 C 864.262 1022.71 863.766 999.741 863.735 977.645 L 863.732 872.301 L 863.775 569.063 L 806.398 568.922 C 806.773 676.115 805.108 785.354 806.419 892.235 C 780.454 849.123 754.233 806.166 727.759 763.365 L 727.82 492.116 z"/>
<path transform="translate(0,0)" fill="rgb(16,10,50)" d="M 160.48 1065.9 C 166.412 1069.64 195.257 1086.95 198.415 1090.51 C 202.594 1092.66 203.062 1092.12 205.503 1095.78 C 207.119 1108.32 205.077 1132.42 205.998 1147.99 C 200.759 1150.91 160.035 1174.26 157.815 1174.07 L 157.307 1173.74 C 142.566 1164.48 127.76 1155.32 112.891 1146.26 C 112.618 1129.42 112.705 1108.95 113.375 1092.2 L 121.417 1087.53 C 133.992 1080.72 148.364 1073.25 160.48 1065.9 z"/>
<path transform="translate(0,0)" fill="rgb(89,55,126)" d="M 159.511 1120.63 C 173.938 1110.5 187.013 1107.83 200.655 1093.72 L 198.159 1091.84 L 198.415 1090.51 C 202.594 1092.66 203.062 1092.12 205.503 1095.78 C 207.119 1108.32 205.077 1132.42 205.998 1147.99 C 200.759 1150.91 160.035 1174.26 157.815 1174.07 L 157.307 1173.74 C 159.699 1170.79 158.446 1161.09 158.321 1156.73 C 157.969 1144.44 158.357 1132.88 159.511 1120.63 z"/>
<path transform="translate(0,0)" fill="rgb(87,64,155)" d="M 160.48 1065.9 C 166.412 1069.64 195.257 1086.95 198.415 1090.51 L 198.159 1091.84 L 200.655 1093.72 C 187.013 1107.83 173.938 1110.5 159.511 1120.63 C 149.244 1113.58 138.491 1107.27 127.756 1099.79 C 123.122 1097.08 118.163 1094.65 113.375 1092.2 L 121.417 1087.53 C 133.992 1080.72 148.364 1073.25 160.48 1065.9 z"/>
<path transform="translate(0,0)" fill="rgb(89,55,126)" d="M 121.417 1087.53 C 125.827 1089.65 128.797 1089.92 130.77 1093.31 C 130.301 1096.78 130.002 1096.93 127.756 1099.79 C 123.122 1097.08 118.163 1094.65 113.375 1092.2 L 121.417 1087.53 z"/>
<path transform="translate(0,0)" fill="rgb(240,122,101)" d="M 1033.28 471.839 C 1039.63 475.403 1073.79 495.588 1077.9 496.936 C 1079.8 503.607 1078.74 541.233 1078.6 550.849 C 1065.89 557.688 1053.36 564.839 1041.01 572.295 C 1032.64 576.815 1032.2 576.374 1023.79 571.41 C 1011.9 564.387 999.98 557.317 988.082 550.308 C 988.367 536.654 987.672 509.994 989.135 497.856 C 1002.6 490.159 1020.3 480.238 1033.28 471.839 z"/>
<path transform="translate(0,0)" fill="rgb(190,92,76)" d="M 989.135 497.856 C 1003.83 506.827 1018.77 515.379 1033.95 523.501 C 1032.98 533.083 1032.11 562.892 1034.69 571.561 C 1036.8 571.795 1038.9 572.039 1041.01 572.295 C 1032.64 576.815 1032.2 576.374 1023.79 571.41 C 1011.9 564.387 999.98 557.317 988.082 550.308 C 988.367 536.654 987.672 509.994 989.135 497.856 z"/>
<path transform="translate(0,0)" fill="rgb(241,149,100)" d="M 1033.28 471.839 C 1039.63 475.403 1073.79 495.588 1077.9 496.936 C 1069.72 502.05 1042.16 520.716 1033.95 523.501 C 1018.77 515.379 1003.83 506.827 989.135 497.856 C 1002.6 490.159 1020.3 480.238 1033.28 471.839 z"/>
</g>
<path transform="translate(0,0)" fill="rgb(16,10,50)" fill-rule="evenodd" d="M 1838.62 750.373 C 1863.82 779.815 1861.15 823.931 1832.59 850.125 C 1804.03 876.32 1759.85 875.171 1732.69 847.527 C 1705.53 819.883 1705.16 775.689 1731.86 747.596 C 1758.56 719.504 1802.71 717.62 1831.7 743.336 C 1834.17 745.521 1836.48 747.872 1838.62 750.373 z M 1763.72 832.665 C 1753.29 821.228 1751.35 809.463 1751.72 794.177 C 1752.23 772.761 1762.82 752.138 1787.69 754.487 C 1813.86 756.958 1818.46 788.884 1815.15 809.7 C 1810.93 834.535 1797.46 842.109 1773.61 838.283 C 1769.78 840.006 1760.79 842.731 1757.51 839.511 C 1758.74 835.883 1760.42 835.416 1763.72 832.665 z"/>
<path transform="translate(0,0)" fill="rgb(14,8,32)" d="M 1831.7 743.336 C 1834.17 745.521 1836.48 747.872 1838.62 750.373 C 1836.07 752.712 1834.29 754.847 1831.05 755.808 L 1829.85 755.127 C 1829.08 751.26 1830.64 747.298 1831.7 743.336 z"/>
<path transform="translate(0,0)" fill="rgb(14,8,32)" d="M 1763.72 832.665 C 1767.23 834.845 1769.82 836.537 1773.61 838.283 C 1769.78 840.006 1760.79 842.731 1757.51 839.511 C 1758.74 835.883 1760.42 835.416 1763.72 832.665 z"/>
<path transform="translate(0,0)" fill="rgb(16,10,50)" fill-rule="evenodd" d="M 1500.11 743.029 C 1522.54 723.342 1563.17 721.161 1589.87 732.177 C 1595.25 734.774 1597.5 735.71 1602.16 739.491 C 1610.28 746.769 1611.94 755.23 1612.53 765.739 C 1614.18 795.45 1608.43 836.549 1617.12 864.854 C 1609.66 864.722 1582.32 865.925 1578.26 863.163 C 1576.5 859.121 1576.62 856.855 1576.29 852.492 C 1560.57 866.445 1549.48 867.166 1527.5 867.76 C 1488.69 868.809 1468.53 825.748 1496.57 798.775 C 1502.13 793.433 1512.73 790.206 1520.05 788.435 C 1535.48 782.82 1568.65 787.545 1575.16 769.377 C 1576.1 766.752 1571.71 759.226 1569.66 757.516 C 1553.42 743.97 1530.46 750.74 1526.09 771.449 C 1515.76 771.464 1502.52 771.873 1492.43 771.407 C 1490.44 771.713 1490.45 771.468 1488.59 770.552 C 1486.15 762.545 1494.6 748.794 1500.11 743.029 z M 1573.87 800.144 C 1574.02 800.363 1574.17 800.582 1574.32 800.8 C 1580.27 835.276 1553.61 850.758 1528.02 838.214 C 1512.83 823.569 1526.05 811.422 1541.9 807.868 C 1552.09 805.583 1563.32 805.027 1572.77 800.659 L 1573.87 800.144 z"/>
<path transform="translate(0,0)" fill="rgb(14,8,32)" d="M 1500.11 743.029 C 1507.64 751.464 1499.72 759.113 1500.77 768.27 C 1505.07 771.26 1504.8 768.247 1506.7 770.456 C 1502.13 770.533 1496.77 770.34 1492.43 771.407 C 1490.44 771.713 1490.45 771.468 1488.59 770.552 C 1486.15 762.545 1494.6 748.794 1500.11 743.029 z"/>
<path transform="translate(0,0)" fill="rgb(14,8,32)" d="M 1589.87 732.177 C 1595.25 734.774 1597.5 735.71 1602.16 739.491 C 1596.29 742.763 1576.79 740.794 1569.31 740.45 C 1578.65 738.286 1586.16 740.941 1589.87 732.177 z"/>
<path transform="translate(0,0)" fill="rgb(16,10,50)" d="M 1307.89 729.115 C 1320.65 729.373 1333.41 729.433 1346.17 729.294 C 1348.56 770.252 1346.39 822.691 1346.93 864.956 L 1310 864.86 L 1310.12 846.524 C 1306.61 850.872 1303.51 855.173 1299.08 858.55 C 1280.99 871.466 1249.61 871.421 1232.09 857.455 C 1221.6 847.705 1218.12 832.191 1217.97 818.43 C 1217.64 788.767 1217.89 758.82 1217.98 729.148 L 1256.74 729.261 C 1256.86 747.95 1256.86 766.64 1256.75 785.329 C 1256.72 803.289 1252.26 838.819 1279.48 838.828 C 1293.19 838.833 1305.4 828.264 1306.65 814.418 C 1309.19 786.409 1307.65 757.386 1307.89 729.115 z"/>
<path transform="translate(0,0)" fill="rgb(14,8,32)" d="M 1232.09 857.455 C 1239.88 854.63 1293 854.05 1299.08 858.55 C 1280.99 871.466 1249.61 871.421 1232.09 857.455 z"/>
<path transform="translate(0,0)" fill="rgb(16,10,50)" d="M 1108.17 747.582 C 1126.67 726.484 1150.73 719.291 1177.32 730.84 C 1183.13 734.091 1184.54 734.756 1189.29 739.58 C 1203.83 756.678 1201.13 784.727 1201.09 805.976 L 1200.97 864.811 L 1162 864.807 L 1162.19 810.749 C 1162.25 792.978 1166.48 755.315 1140.54 755.024 C 1110.4 754.686 1110.43 783.086 1110.51 804.461 C 1110.59 824.726 1111.08 845.044 1110.72 864.913 L 1071.89 864.841 L 1072 784.837 C 1072.01 773.171 1071.47 755.893 1072.14 744.593 L 1072.09 729.017 C 1078.83 729.294 1104.48 728.78 1107.94 729.997 L 1108.17 747.582 z"/>
<path transform="translate(0,0)" fill="rgb(7,4,14)" d="M 1177.32 730.84 C 1183.13 734.091 1184.54 734.756 1189.29 739.58 C 1185.38 740.871 1176.04 741.832 1172.18 740.177 C 1172.88 735.422 1175.15 739.022 1177.32 730.84 z"/>
<path transform="translate(0,0)" fill="rgb(16,10,50)" d="M 1447.55 729.058 C 1460.45 729.168 1473.34 729.152 1486.24 729.011 L 1481.95 740.236 L 1477.62 753.137 C 1464.82 790.268 1452.26 827.484 1439.95 864.781 C 1425.83 865.052 1411.03 864.84 1396.86 864.855 C 1382.66 820.761 1365.43 773.461 1350.22 729.267 C 1363.35 729.57 1377.21 729.23 1390.4 729.104 C 1393.49 740.287 1397.76 751.808 1401.12 763.005 C 1406.95 782.461 1412.69 801.649 1419.29 820.87 C 1427.42 790.121 1438.39 759.521 1447.55 729.058 z"/>
<path transform="translate(0,0)" fill="rgb(7,4,14)" d="M 1477.62 753.137 C 1473.46 750.364 1472.49 748.703 1470.98 744.128 C 1469.21 738.771 1457.28 743.873 1452.63 739.517 C 1454.31 735.955 1462.3 738.508 1466.26 738.029 C 1474.06 737.083 1475.06 736.006 1481.95 740.236 L 1477.62 753.137 z"/>
<path transform="translate(0,0)" fill="rgb(16,10,50)" d="M 1685.96 732.202 C 1723.6 713.884 1718.98 733.633 1717.88 762.202 C 1654.48 753.109 1667.99 821.636 1668.22 864.835 L 1629.92 864.939 L 1630.08 729.38 C 1641.98 729.355 1653.94 729.431 1665.82 728.927 C 1666.91 734.153 1666.64 735.94 1666.3 741.109 C 1666 745.079 1665.57 746.414 1666.95 749.997 C 1669.33 749.32 1673.95 742.52 1676.3 739.799 C 1680.23 735.852 1681.35 735.149 1685.96 732.202 z"/>
<path transform="translate(0,0)" fill="rgb(14,8,32)" d="M 1685.96 732.202 C 1688.58 739.363 1690.92 738.002 1698.51 739.323 C 1695.85 742.283 1679.69 742.848 1676.3 739.799 C 1680.23 735.852 1681.35 735.149 1685.96 732.202 z"/>
<path transform="translate(0,0)" fill="rgb(14,8,32)" d="M 1665.82 728.927 C 1666.91 734.153 1666.64 735.94 1666.3 741.109 C 1660.74 740.388 1657.98 740.307 1652.38 740.315 C 1668.06 732.99 1656.92 733.725 1665.82 728.927 z"/>






<path transform="translate(0,0)" fill="rgb(190,92,76)" d="M 1065.92 928.492 C 1095.85 927.588 1127.27 928.68 1157.35 928.118 C 1163.43 928.004 1196.88 927.738 1200.4 928.61 L 1201.18 931.62 L 1104.5 931.28 C 1099.55 931.277 1069.83 931.732 1066.62 930.798 L 1065.92 928.492 z"/>














<!-- Clean Nunito SemiBold tagline -->
<path d="M137 -7Q111 -7 96.5 7.0Q82 21 82 48V649Q82 676 96.5 690.5Q111 705 138 705H494Q516 705 526.5 694.5Q537 684 537 664Q537 643 526.5 632.0Q516 621 494 621H186V396H474Q494 396 505.5 385.5Q517 375 517 355Q517 334 505.5 323.0Q494 312 474 312H186V48Q186 -7 137 -7Z" fill="rgb(14, 8, 32)" fill-rule="evenodd" transform="translate(1233.00, 945) scale(0.056000, -0.056000)"/>
<path d="M367 -9Q296 -9 242.0 9.5Q188 28 151.5 65.0Q115 102 96.0 157.0Q77 212 77 284V660Q77 686 90.5 699.0Q104 712 129 712Q154 712 167.5 699.0Q181 686 181 660V286Q181 183 228.5 132.0Q276 81 367 81Q459 81 506.0 132.0Q553 183 553 286V660Q553 686 566.5 699.0Q580 712 604 712Q629 712 642.0 699.0Q655 686 655 660V284Q655 188 622.5 122.5Q590 57 526.0 24.0Q462 -9 367 -9Z" fill="rgb(14, 8, 32)" fill-rule="evenodd" transform="translate(1272.02, 945) scale(0.056000, -0.056000)"/>
<path d="M306 -7Q281 -7 267.5 7.0Q254 21 254 46V618H42Q21 618 9.0 629.5Q-3 641 -3 662Q-3 683 9.0 694.0Q21 705 42 705H569Q591 705 603.0 694.0Q615 683 615 662Q615 641 603.0 629.5Q591 618 569 618H357V46Q357 21 344.5 7.0Q332 -7 306 -7Z" fill="rgb(14, 8, 32)" fill-rule="evenodd" transform="translate(1321.07, 945) scale(0.056000, -0.056000)"/>
<path d="M367 -9Q296 -9 242.0 9.5Q188 28 151.5 65.0Q115 102 96.0 157.0Q77 212 77 284V660Q77 686 90.5 699.0Q104 712 129 712Q154 712 167.5 699.0Q181 686 181 660V286Q181 183 228.5 132.0Q276 81 367 81Q459 81 506.0 132.0Q553 183 553 286V660Q553 686 566.5 699.0Q580 712 604 712Q629 712 642.0 699.0Q655 686 655 660V284Q655 188 622.5 122.5Q590 57 526.0 24.0Q462 -9 367 -9Z" fill="rgb(14, 8, 32)" fill-rule="evenodd" transform="translate(1363.29, 945) scale(0.056000, -0.056000)"/>
<path d="M134 -7Q109 -7 95.5 7.0Q82 21 82 46V652Q82 678 96.0 691.5Q110 705 135 705H374Q488 705 550.0 651.0Q612 597 612 498Q612 434 584.0 388.0Q556 342 503 318Q479 307 451 302Q466 297 479 288Q508 268 532 224L618 64Q628 46 627.5 29.5Q627 13 615.5 3.0Q604 -7 583 -7Q561 -7 547.5 2.5Q534 12 523 31L418 225Q397 264 370.0 277.5Q343 291 299 291H186V46Q186 21 173.0 7.0Q160 -7 134 -7ZM186 369H357Q433 369 472.0 401.0Q511 433 511 496Q511 558 472.0 590.0Q433 622 357 622H186Z" fill="rgb(14, 8, 32)" fill-rule="evenodd" transform="translate(1412.34, 945) scale(0.056000, -0.056000)"/>
<path d="M138 0Q111 0 96.5 14.5Q82 29 82 56V649Q82 676 96.5 690.5Q111 705 138 705H503Q524 705 535.0 694.5Q546 684 546 664Q546 643 535.0 632.0Q524 621 503 621H182V400H481Q503 400 513.5 389.0Q524 378 524 358Q524 337 513.5 326.5Q503 316 481 316H182V84H503Q524 84 535.0 73.0Q546 62 546 42Q546 21 535.0 10.5Q524 0 503 0Z" fill="rgb(14, 8, 32)" fill-rule="evenodd" transform="translate(1458.25, 945) scale(0.056000, -0.056000)"/>
<path d="M105 226Q87 226 75.0 238.0Q63 250 63 267Q63 285 75.0 296.5Q87 308 105 308H325Q342 308 354.0 296.5Q366 285 366 267Q366 250 354.0 238.0Q342 226 325 226Z" fill="rgb(14, 8, 32)" fill-rule="evenodd" transform="translate(1499.23, 945) scale(0.056000, -0.056000)"/>
<path d="M134 -7Q109 -7 95.5 7.0Q82 21 82 46V652Q82 678 96.0 691.5Q110 705 135 705H374Q488 705 550.0 651.0Q612 597 612 498Q612 434 584.0 388.0Q556 342 503 318Q479 307 451 302Q466 297 479 288Q508 268 532 224L618 64Q628 46 627.5 29.5Q627 13 615.5 3.0Q604 -7 583 -7Q561 -7 547.5 2.5Q534 12 523 31L418 225Q397 264 370.0 277.5Q343 291 299 291H186V46Q186 21 173.0 7.0Q160 -7 134 -7ZM186 369H357Q433 369 472.0 401.0Q511 433 511 496Q511 558 472.0 590.0Q433 622 357 622H186Z" fill="rgb(14, 8, 32)" fill-rule="evenodd" transform="translate(1531.26, 945) scale(0.056000, -0.056000)"/>
<path d="M138 0Q111 0 96.5 14.5Q82 29 82 56V649Q82 676 96.5 690.5Q111 705 138 705H503Q524 705 535.0 694.5Q546 684 546 664Q546 643 535.0 632.0Q524 621 503 621H182V400H481Q503 400 513.5 389.0Q524 378 524 358Q524 337 513.5 326.5Q503 316 481 316H182V84H503Q524 84 535.0 73.0Q546 62 546 42Q546 21 535.0 10.5Q524 0 503 0Z" fill="rgb(14, 8, 32)" fill-rule="evenodd" transform="translate(1577.17, 945) scale(0.056000, -0.056000)"/>
<path d="M78 -7Q58 -7 46.0 2.0Q34 11 32.0 26.0Q30 41 38 60L309 668Q319 692 334.5 702.0Q350 712 369 712Q387 712 402.5 702.0Q418 692 428 668L699 60Q708 41 706.0 25.5Q704 10 693.0 1.5Q682 -7 662 -7Q640 -7 627.0 4.0Q614 15 604 38L546 172H189L132 38Q122 14 110.0 3.5Q98 -7 78 -7ZM367 590 226 256H511L369 590Z" fill="rgb(14, 8, 32)" fill-rule="evenodd" transform="translate(1618.15, 945) scale(0.056000, -0.056000)"/>
<path d="M138 0Q111 0 96.5 14.5Q82 29 82 56V649Q82 676 96.5 690.5Q111 705 138 705H331Q505 705 599.5 614.5Q694 524 694 353Q694 268 670.0 202.0Q646 136 599.5 91.5Q553 47 486.0 23.5Q419 0 331 0ZM186 87H325Q391 87 439.5 103.5Q488 120 521.0 153.0Q554 186 570.0 236.0Q586 286 586 353Q586 486 520.5 552.0Q455 618 325 618H186Z" fill="rgb(14, 8, 32)" fill-rule="evenodd" transform="translate(1667.37, 945) scale(0.056000, -0.056000)"/>
<path d="M303 -7Q278 -7 264.5 7.0Q251 21 251 47V330L27 641Q16 656 17.0 672.5Q18 689 30.5 700.5Q43 712 64 712Q80 712 93.5 704.0Q107 696 119 679L305 421L491 679Q504 697 516.0 704.5Q528 712 546 712Q567 712 578.5 701.5Q590 691 590.5 674.5Q591 658 578 640L354 327V47Q354 -7 303 -7Z" fill="rgb(14, 8, 32)" fill-rule="evenodd" transform="translate(1717.42, 945) scale(0.056000, -0.056000)"/>
<path d="M306 -7Q281 -7 267.5 7.0Q254 21 254 46V618H42Q21 618 9.0 629.5Q-3 641 -3 662Q-3 683 9.0 694.0Q21 705 42 705H569Q591 705 603.0 694.0Q615 683 615 662Q615 641 603.0 629.5Q591 618 569 618H357V46Q357 21 344.5 7.0Q332 -7 306 -7Z" fill="rgb(14, 8, 32)" fill-rule="evenodd" transform="translate(1784.16, 945) scale(0.056000, -0.056000)"/>
<path d="M138 0Q111 0 96.5 14.5Q82 29 82 56V649Q82 676 96.5 690.5Q111 705 138 705H503Q524 705 535.0 694.5Q546 684 546 664Q546 643 535.0 632.0Q524 621 503 621H182V400H481Q503 400 513.5 389.0Q524 378 524 358Q524 337 513.5 326.5Q503 316 481 316H182V84H503Q524 84 535.0 73.0Q546 62 546 42Q546 21 535.0 10.5Q524 0 503 0Z" fill="rgb(14, 8, 32)" fill-rule="evenodd" transform="translate(1826.38, 945) scale(0.056000, -0.056000)"/>
<path d="M398 -9Q291 -9 215.0 35.0Q139 79 98.5 160.5Q58 242 58 353Q58 436 81.0 502.5Q104 569 147.5 616.5Q191 664 254.5 689.0Q318 714 398 714Q457 714 511.5 698.0Q566 682 606 652Q623 641 628.5 625.5Q634 610 630.5 596.0Q627 582 617.0 572.5Q607 563 591.5 562.0Q576 561 558 573Q525 598 485.0 610.0Q445 622 401 622Q325 622 273.0 590.5Q221 559 194.0 499.0Q167 439 167 353Q167 267 194.0 206.5Q221 146 273.0 114.5Q325 83 401 83Q445 83 485.5 95.5Q526 108 562 133Q580 144 594.5 143.0Q609 142 619.0 133.0Q629 124 632.5 110.5Q636 97 631.5 82.5Q627 68 612 58Q571 25 515.0 8.0Q459 -9 398 -9Z" fill="rgb(14, 8, 32)" fill-rule="evenodd" transform="translate(1867.36, 945) scale(0.056000, -0.056000)"/>
<path d="M134 -7Q109 -7 95.5 7.0Q82 21 82 46V659Q82 685 95.5 698.5Q109 712 134 712Q159 712 172.5 698.5Q186 685 186 659V401H581V659Q581 685 594.5 698.5Q608 712 633 712Q658 712 671.0 698.5Q684 685 684 659V46Q684 21 671.0 7.0Q658 -7 633 -7Q608 -7 594.5 7.0Q581 21 581 46V314H186V46Q186 21 173.0 7.0Q160 -7 134 -7Z" fill="rgb(14, 8, 32)" fill-rule="evenodd" transform="translate(1913.22, 945) scale(0.056000, -0.056000)"/>
</svg>